<svg width="48" height="48" viewBox="0 0 48 48" fill="none" xmlns="http://www.w3.org/2000/svg">
<rect width="48" height="48" rx="24" fill="white"/>
<path d="M16.8 11V15.8H19.2H21.6V11H19.2H16.8Z" fill="black"/>
<path d="M31.2 25.4H36V20.6H33.6H31.2V25.4Z" fill="black"/>
<path d="M16.8 35V30.2H14.4H12V35H14.4H16.8Z" fill="black"/>
<path d="M16.8 15.8H12V20.6V25.4V30.2M16.8 15.8V11H19.2H21.6V15.8M16.8 15.8V20.6V25.4V30.2M16.8 15.8H19.2H21.6M21.6 15.8H26.4M21.6 15.8V18.2V20.6V25.4H24H26.4V20.6V18.2V15.8M26.4 15.8H31.2M26.4 15.8V13.4V11H31.2V13.4V15.8M31.2 15.8V20.6M31.2 15.8H33.6H36V20.6M31.2 25.4H36V20.6M31.2 25.4V20.6M31.2 25.4V27.8V30.2M31.2 20.6H33.6H36M31.2 30.2V35H36V30.2H31.2ZM16.8 30.2V35H14.4H12V30.2M16.8 30.2H14.4H12" stroke="black"/>
</svg>
